<svg width="200" height="100" viewBox="0 0 540 226" fill="none" xmlns="http://www.w3.org/2000/svg">
  <path d="M0 1H225V226H0V1Z" fill="#F7DF1E" />
  <path
    d="M59.1607 189.026L76.3793 178.606C79.7011 184.496 82.7229 189.479 89.9711 189.479C96.9189 189.479 101.299 186.761 101.299 176.19V104.297H122.444V176.489C122.444 198.389 109.606 208.357 90.8775 208.357C73.9629 208.357 64.1443 199.596 59.1603 189.025"
    fill="black" />
  <path
    d="M133.928 186.761L151.145 176.792C155.677 184.194 161.567 189.631 171.988 189.631C180.749 189.631 186.336 185.25 186.336 179.209C186.336 171.959 180.597 169.391 170.931 165.164L165.646 162.897C150.391 156.404 140.271 148.248 140.271 131.03C140.271 115.171 152.353 103.088 171.234 103.088C184.676 103.088 194.342 107.77 201.289 120.004L184.826 130.576C181.201 124.082 177.275 121.515 171.234 121.515C165.041 121.515 161.114 125.442 161.114 130.576C161.114 136.92 165.041 139.488 174.102 143.415L179.388 145.68C197.361 153.384 207.481 161.236 207.481 178.907C207.481 197.938 192.529 208.358 172.442 208.358C152.807 208.358 140.12 198.995 133.928 186.761Z"
    fill="black" />
  <path
    d="M425.013 0.117676C367.808 0.11768 371.381 24.9252 371.381 24.9252L371.444 50.6255H426.034V58.342H349.762C349.762 58.342 313.156 54.1906 313.156 111.911C313.156 169.631 345.106 167.584 345.106 167.584H364.174V140.8C364.174 140.8 363.147 108.85 395.614 108.85H449.757C449.757 108.85 480.177 109.342 480.177 79.4507V30.027C480.177 30.027 484.795 0.117676 425.013 0.117676ZM394.913 17.4C400.344 17.4 404.734 21.7898 404.734 27.221C404.734 32.6522 400.344 37.042 394.913 37.042C389.481 37.042 385.092 32.6522 385.092 27.221C385.092 21.7898 389.481 17.4 394.913 17.4Z"
    fill="url(#paint0_linear_1_18)" />
  <path
    d="M426.638 224.283C483.843 224.283 480.271 199.475 480.271 199.475L480.207 173.775H425.618V166.059H501.89C501.89 166.059 538.495 170.21 538.495 112.49C538.495 54.7694 506.545 56.8163 506.545 56.8163H487.477V83.6007C487.477 83.6007 488.505 115.551 456.037 115.551H401.894C401.894 115.551 371.475 115.059 371.475 144.95V194.374C371.475 194.374 366.856 224.283 426.638 224.283ZM456.739 207.001C451.307 207.001 446.918 202.611 446.918 197.18C446.918 191.748 451.307 187.359 456.739 187.359C462.17 187.359 466.56 191.748 466.56 197.18C466.56 202.611 462.17 207.001 456.739 207.001Z"
    fill="url(#paint1_linear_1_18)" />
  <defs>
    <linearGradient id="paint0_linear_1_18" x1="2478.71" y1="2016.42" x2="13645.7" y2="13072"
      gradientUnits="userSpaceOnUse">
      <stop stop-color="#387EB8" />
      <stop offset="1" stop-color="#366994" />
    </linearGradient>
    <linearGradient id="paint1_linear_1_18" x1="3567.66" y1="3503.32" x2="15559.8" y2="14839.9"
      gradientUnits="userSpaceOnUse">
      <stop stop-color="#FFE052" />
      <stop offset="1" stop-color="#FFC331" />
    </linearGradient>
  </defs>
</svg>